<?xml version="1.0" encoding="utf-8"?>
<!-- Generator: Adobe Illustrator 15.1.0, SVG Export Plug-In . SVG Version: 6.00 Build 0)  -->
<!DOCTYPE svg PUBLIC "-//W3C//DTD SVG 1.1//EN" "http://www.w3.org/Graphics/SVG/1.1/DTD/svg11.dtd">
<svg version="1.1" id="Layer_1" xmlns="http://www.w3.org/2000/svg" xmlns:xlink="http://www.w3.org/1999/xlink" x="0px" y="0px"
	 width="200px" height="78.161px" viewBox="0 0 200 78.161" enable-background="new 0 0 200 78.161" xml:space="preserve">
<g>
	<g>
		<path fill="#939599" d="M121.547,20.025c0,4.979-1.446,8.984-4.337,12.018c-2.892,3.035-6.465,4.553-10.724,4.553
			c-4.286,0-7.911-1.525-10.873-4.574c-2.963-3.049-4.445-6.732-4.445-11.047c0-4.316,1.481-8.008,4.445-11.066
			c2.962-3.064,6.587-4.598,10.873-4.598c2.36,0,4.56,0.426,6.603,1.273c2.042,0.848,3.767,2.078,5.178,3.691l-1.252,1.293
			c-1.208-1.471-2.74-2.604-4.596-3.41c-1.855-0.805-3.832-1.207-5.933-1.207c-3.797,0-6.983,1.373-9.558,4.121
			c-2.574,2.746-3.86,6.047-3.86,9.902c0,3.857,1.278,7.148,3.84,9.883c2.56,2.732,5.753,4.098,9.578,4.098
			c3.711,0,6.832-1.295,9.364-3.883c2.531-2.59,3.797-5.754,3.797-9.494h-13.162v-1.553H121.547z"/>
		<path fill="#939599" d="M135.053,17.176h-1.727c-1.669,0-3.136,0.779-4.401,2.332s-1.899,3.508-1.899,5.869v10.699h-1.639V15.623
			h1.639v3.93c0.547-1.096,1.381-2.023,2.503-2.785c1.121-0.762,2.33-1.145,3.625-1.145h1.899V17.176z"/>
		<path fill="#939599" d="M157.232,26.281c0,2.762-1.015,5.158-3.042,7.186c-2.027,2.027-4.48,3.041-7.356,3.041
			c-3.165,0-5.783-1.02-7.854-3.063c-2.072-2.043-3.107-4.559-3.107-7.551c0-2.963,0.992-5.488,2.977-7.574s4.532-3.129,7.638-3.129
			c1.899,0,3.653,0.455,5.265,1.359c1.61,0.906,2.892,2.123,3.84,3.646l-14.627,9.924l-1.037-1.379l13.167-8.881
			c-1.641-2.078-3.841-3.115-6.604-3.115c-2.562,0-4.683,0.912-6.366,2.738c-1.685,1.828-2.525,3.992-2.525,6.496
			c0,2.475,0.847,4.588,2.544,6.344c1.697,1.754,3.813,2.631,6.343,2.631c2.447,0,4.553-0.855,6.323-2.568
			c1.769-1.711,2.654-3.746,2.654-6.105H157.232z"/>
		<path fill="#939599" d="M180.663,26.281c0,2.762-1.014,5.158-3.042,7.186c-2.028,2.027-4.479,3.041-7.357,3.041
			c-3.164,0-5.782-1.02-7.853-3.063c-2.073-2.043-3.107-4.559-3.107-7.551c0-2.963,0.992-5.488,2.976-7.574
			c1.985-2.086,4.533-3.129,7.639-3.129c1.897,0,3.652,0.455,5.264,1.359c1.611,0.906,2.892,2.123,3.841,3.646l-14.629,9.924
			l-1.035-1.379l13.166-8.881c-1.641-2.078-3.841-3.115-6.604-3.115c-2.562,0-4.684,0.912-6.367,2.738
			c-1.684,1.828-2.525,3.992-2.525,6.496c0,2.475,0.849,4.588,2.546,6.344c1.696,1.754,3.812,2.631,6.344,2.631
			c2.445,0,4.552-0.855,6.321-2.568c1.77-1.711,2.653-3.746,2.653-6.105H180.663z"/>
		<path fill="#939599" d="M200.082,36.078h-1.64V23.822c0-2.072-0.633-3.766-1.898-5.092c-1.267-1.32-2.82-1.984-4.661-1.984
			c-1.84,0-3.394,0.664-4.66,1.984c-1.266,1.326-1.899,3.02-1.899,5.092v12.256h-1.64V23.605c0-2.473,0.785-4.494,2.352-6.061
			c1.568-1.568,3.518-2.354,5.848-2.354c2.358,0,4.315,0.777,5.869,2.332c1.553,1.551,2.33,3.58,2.33,6.082V36.078z"/>
		<path fill="#939599" d="M110.888,50.975c0,2.875-0.87,5.141-2.611,6.797c-1.74,1.652-3.963,2.479-6.667,2.479h-5.87v-1.641h5.87
			c2.186,0,3.962-0.68,5.329-2.047c1.366-1.367,2.05-3.229,2.05-5.588c0-2.387-0.684-4.266-2.05-5.633
			c-1.366-1.365-3.143-2.049-5.329-2.049c-2.128,0-3.905,0.684-5.33,2.049c-1.424,1.367-2.136,3.043-2.136,5.029V72.42h-1.811
			V50.543c0-2.504,0.827-4.609,2.479-6.322c1.654-1.711,3.919-2.568,6.797-2.568c2.703,0,4.927,0.828,6.667,2.482
			C110.018,45.789,110.888,48.068,110.888,50.975"/>
		<path fill="#939599" d="M133.154,62.193c0,2.934-1.001,5.445-3,7.529c-2,2.088-4.465,3.127-7.401,3.127
			c-2.905,0-5.358-1.039-7.356-3.127c-2-2.084-2.999-4.596-2.999-7.529c0-2.936,0.999-5.445,2.999-7.531
			c1.998-2.086,4.451-3.129,7.356-3.129s5.366,1.051,7.38,3.15C132.146,56.785,133.154,59.289,133.154,62.193 M131.384,62.193
			c0-2.447-0.819-4.574-2.459-6.387c-1.64-1.813-3.697-2.719-6.171-2.719c-2.445,0-4.495,0.912-6.148,2.738
			c-1.654,1.83-2.48,3.951-2.48,6.367c0,2.443,0.819,4.574,2.459,6.387c1.639,1.811,3.696,2.719,6.169,2.719
			c2.445,0,4.496-0.914,6.149-2.742C130.558,66.73,131.384,64.607,131.384,62.193"/>
		<path fill="#939599" d="M140.273,46.141c0,0.373-0.123,0.684-0.367,0.93c-0.244,0.24-0.554,0.365-0.927,0.365
			c-0.374,0-0.684-0.125-0.928-0.365c-0.244-0.246-0.367-0.557-0.367-0.93s0.123-0.684,0.367-0.928
			c0.244-0.242,0.554-0.367,0.928-0.367c0.374,0,0.683,0.125,0.927,0.367C140.151,45.457,140.273,45.768,140.273,46.141
			 M139.799,72.42h-1.64V51.965h1.64V72.42z"/>
		<path fill="#939599" d="M162.108,72.42h-1.64V60.164c0-2.072-0.633-3.768-1.899-5.09c-1.267-1.324-2.819-1.986-4.66-1.986
			c-1.843,0-3.395,0.662-4.661,1.986c-1.265,1.322-1.899,3.018-1.899,5.09V72.42h-1.64V59.947c0-2.475,0.784-4.492,2.351-6.061
			c1.568-1.568,3.517-2.355,5.848-2.355c2.358,0,4.315,0.781,5.868,2.334c1.553,1.551,2.331,3.582,2.331,6.082V72.42z"/>
		<path fill="#939599" d="M175.527,72.42h-2.933c-1.929,0-3.403-0.51-4.424-1.529c-1.021-1.02-1.532-2.461-1.532-4.332V46.355h1.639
			v5.609h7.25v1.557h-7.25v13.201c0,1.268,0.36,2.273,1.08,3.021c0.718,0.748,1.684,1.123,2.891,1.123h3.279V72.42z"/>
	</g>
	<rect x="-0.082" y="40.287" fill="#939599" width="36.857" height="36.857"/>
	<g>
		<path fill="#3EB44A" d="M79.435,58.717c0,10.221-8.288,18.506-18.508,18.506c-10.222,0-18.508-8.285-18.508-18.506
			c0-10.225,8.287-18.508,18.508-18.508C71.147,40.209,79.435,48.492,79.435,58.717"/>
	</g>
	<polygon fill="#939599" points="0.051,34.424 39.81,0.938 79.567,34.424 	"/>
</g>
</svg>
